<svg xmlns="http://www.w3.org/2000/svg" style="background: transparent; background-color: transparent;" xmlns:xlink="http://www.w3.org/1999/xlink" version="1.1" width="742px" height="272px" viewBox="-0.5 -0.5 742 272" content="&lt;mxfile&gt;&lt;diagram name=&quot;Seite-1&quot; id=&quot;4UVButH17yrCxIi93USr&quot;&gt;7V1tc5s4EP41/hgPIGPsj3HcNL1pZ3qXm7veJ48CMtYFkA/kt/76k4xkA5JtkgImHtJpalYyiH2eXe0ua7cHHsLt5xguF9+Ih4KeZXjbHpj2LMsEBvvNBTshGI9SgR9jT4iOgmf8EwmheJ+/wh5KchMpIQHFy7zQJVGEXJqTwTgmm/y0OQnyV11CHymCZxcGqvRv7NFFKnWGxlH+hLC/EFcejMVACOVcIUgW0CObjAh86oGHmBCavgq3DyjgqpNqSd/3eGL0sK4YRbTMG35fP/z47dGbft39MUavL0/uFIE7cZY1DFbifsVi6U4qICaryEP8JGYPTDYLTNHzErp8dMMQZ7IFDQMxPMdB8EACErPjiERs0iShMXk96I7d9kRduVwGiinaZkTiTj4jEiIa79gUMWrbQqu7PFs2R4gsQ8gWGXgkbFCwwj+c+ag59kIo7w2KtG5EkaNrKxLciCJN+9qaHNyIJg8e9GqatC9r0meqXJ68ebE5wRc53XizUoZ5pYxVnQw0KhnUpZLhZZWws7BNGl0mFkyW6c49x1tOxsmRlsaBZJJ5HprDVUC15IMB9iP22mX6R2zyhOsXs738XgyE2PP48iZzEtFHGOKAq/MJBWvE54kBEYSYljiWl+5ZwNj/yHniXk8Yh8qGs+S6TIUGsC7hfTPASfV+hS8o+E4STDHhan4hlJJQB0jAZ06g++rvMc5odr7/0WBGyVIL9klayDiLw+TBZHEk0gIu+U2EW5+Hqn1MEqePmW0m/XDPyZMgKuCUxfWkPZsl4hcVYqsucx4puP+BEgRjd6HgzxRBC/YrkArQnJ4zuhgl+KfwgRyPJcER3d+JPenZU36mFWUs+imNKg+xQEQDUhlrtsw3WHMFu9iwgLBl9m0FY9MYqSADpyaQxwrIf+FkxdBjCupQrgTlsR5lq0GU5YoyMP8ZwyiZMwfcoVwJyuZQB/PYbhJlNXOfkk0UEOh1KFfksYHWmKXmm4G5RF2h6dTDAlfOPcwSUWqXfJQKUg/8akX2oV9iiTpG8oqou8g6KRR/WqPUV5lnk4IMFS46rywGQSHnUWA/mRTpExyyogGO2NVlGdvQcaqYwpD5HLuoz4zcRUua9D25B+h5nOVr5SysnnJy1Mz5n1EfWOPjj+Uo3kibOoE+AHVRtIUFInN4bS/dlYgq89KtqhHpl+i80Utr/V1BlezPI1/DhDk7D6Pj2AXffIoOOcf/Tj+tEChbIdcwQzLA0LG46M7hJhn04XIZsOvy5cw8nLiELWQ3S1C8Zq5+xqZkpNDfM+esswfnyFw9A8Wok/NGY00kbQ01XtrsG2ZdFFWLXFf30ppHG82arVoT6pz0O530qDQZGkC7RN54k4X8gJBXHPkzP4BJcg7P95T0U4g/Sk3fUktEqm17PpL0F+rJGy2J6YL4JGLcIBy/PV3+RZTuhHXxAtC5NGpvbA+ODdpm6ScYfOQfirx73kB0VA2TPGIOQhqsBGRzH+EQCmMxzpWhErKKXXQOLQEOhbGPzpEQCJfNoTvrZWIUsKWtUW4d1bOshKdpZZtB0VpNTa1vpLHX+lqIQGee7TXPQUnzHJjtMs+P2gVUNM/R1c2zRJHnI2hycHVFDjs/V6GfQ1tMf4iT8df/cDlLt9Oj6TYzbbqrxzfaZUOXQdW+Ubz1Oy/5Zxg/zlPeKTyeS+9IvKnA5sMqfoHgai3sG2TXYn8V5nfPZss9mx3KApKA1B7qnsA7qhur7dGs1YZyUp7ntqoSW9OUIGXVq6RENSnD9FxOrxSPqqrPFosFfugFfeRhWsYkclXlbD0iV8tu/FHbxU1D5dx5Dpdm3J1VTJsUyjVa5JC9CF0B83RUWR8Zrt0JAkqUuNpZ5jzpWMoWOv2AvJzYwCvYb4tWbqk7S7NAq1WmJxivUUK7iOp9CDtFhLUBlQbj2gIq0NW/2lv/AqXrX4JFded4ViHHMweFqDZdqZLkMZ3BXWaaMPIa0kDQNa69pXHNXYWXexkaalx7+35pXczEQKP7ZQs60ooxxPjaMUTXkFZVqgDa35AG2tuQJia3rhvtxP6jdqhhQmdshWiDEzSDSYLobIFRzD8uuKuFRLIKmHMoQHEnlubTdFJWPcHU+t8X5gG2XUJSTUIy1iUkw3GTCUmJcmYXwN1mAKereDQawckTd9lwC7Nh2eTRZcPl+VyiVNs50xt1pprUr1lnqpaPO+9aoXdNmHuhhRl72QUPzG413v3IHmS6V/jhsX1lfyT7V97vuWVM1xrPDYqNblY5z12ZX+6q7pVaQnaH0lJetGvJ12Xatd5P9yvHKQ2GF4OOxjWHy80yF7SduYont42CJ3cK4UzdnlxX8x/u4eb8yBnH8L8VkQN3aQHpnk2wRsvtHjU5zl75/N8v0Wf+db3idGx56RnTQSn28LooSpYw0l745UDOOzdlJ78+jliYDQPtEp53CUVhZgnpufPXY+LcKhop7zfpBqxReXPXpz6ejUbeoJpAHxggR3nb0X1jjqPpQTwIq4/1u/by29oJrA+3EwyK1Zhi+2PdO4HTmcBNmcCVm2/eYwKjvAkcPoX0yybADo9fmp9OP/7HA+DT/w==&lt;/diagram&gt;&lt;/mxfile&gt;"><defs/><g><g><rect x="541" y="1" width="200" height="60" rx="9" ry="9" fill="none" stroke="#000000" stroke-width="2" pointer-events="all" style="stroke: light-dark(rgb(0, 0, 0), rgb(255, 255, 255));"/></g><g><rect x="541" y="71" width="200" height="60" rx="9" ry="9" fill="none" stroke="#000000" stroke-width="2" pointer-events="all" style="stroke: light-dark(rgb(0, 0, 0), rgb(255, 255, 255));"/></g><g><rect x="541" y="141" width="200" height="60" rx="9" ry="9" fill="none" stroke="#000000" stroke-width="2" pointer-events="all" style="stroke: light-dark(rgb(0, 0, 0), rgb(255, 255, 255));"/></g><g><rect x="541" y="211" width="200" height="60" rx="9" ry="9" fill="none" stroke="#000000" stroke-width="2" pointer-events="all" style="stroke: light-dark(rgb(0, 0, 0), rgb(255, 255, 255));"/></g><g/><g><ellipse cx="571" cy="101" rx="20" ry="20" fill="none" stroke="#000000" stroke-width="2" pointer-events="all" style="stroke: light-dark(rgb(0, 0, 0), rgb(255, 255, 255));"/></g><g><path d="M 561 94 L 566 91 L 571 94 L 576 91 L 581 94 L 581 111 L 576 108 L 571 111 L 566 108 L 561 111 Z" fill="none" stroke="#000000" stroke-width="2" stroke-miterlimit="10" pointer-events="all" style="stroke: light-dark(rgb(0, 0, 0), rgb(255, 255, 255));"/><path d="M 571 94 L 571 111 M 566 91 L 566 108 M 576 91 L 576 108" fill="none" stroke="#000000" stroke-width="2" stroke-miterlimit="10" pointer-events="all" style="stroke: light-dark(rgb(0, 0, 0), rgb(255, 255, 255));"/></g><g><rect x="601" y="12.5" width="108" height="37" fill="none" stroke="none" pointer-events="all"/></g><g><g transform="translate(-0.5 -0.5)"><switch><foreignObject style="overflow: visible; text-align: left;" pointer-events="none" width="100%" height="100%" requiredFeatures="http://www.w3.org/TR/SVG11/feature#Extensibility"><div xmlns="http://www.w3.org/1999/xhtml" style="display: flex; align-items: unsafe center; justify-content: unsafe flex-start; width: 1px; height: 1px; padding-top: 31px; margin-left: 603px;"><div style="box-sizing: border-box; font-size: 0; text-align: left; color: #000000; "><div style="display: inline-block; font-size: 21px; font-family: &quot;Helvetica&quot;; color: light-dark(#000000, #ededed); line-height: 1.2; pointer-events: all; font-weight: bold; white-space: nowrap; ">Research</div></div></div></foreignObject><text x="603" y="37" fill="#000000" font-family="&quot;Helvetica&quot;" font-size="21px" font-weight="bold">Research</text></switch></g></g><g><rect x="601" y="82.5" width="102" height="37" fill="none" stroke="none" pointer-events="all"/></g><g><g transform="translate(-0.5 -0.5)"><switch><foreignObject style="overflow: visible; text-align: left;" pointer-events="none" width="100%" height="100%" requiredFeatures="http://www.w3.org/TR/SVG11/feature#Extensibility"><div xmlns="http://www.w3.org/1999/xhtml" style="display: flex; align-items: unsafe center; justify-content: unsafe flex-start; width: 1px; height: 1px; padding-top: 101px; margin-left: 603px;"><div style="box-sizing: border-box; font-size: 0; text-align: left; color: #000000; "><div style="display: inline-block; font-size: 21px; font-family: &quot;Helvetica&quot;; color: light-dark(#000000, #ededed); line-height: 1.2; pointer-events: all; font-weight: bold; white-space: nowrap; ">Visualize</div></div></div></foreignObject><text x="603" y="107" fill="#000000" font-family="&quot;Helvetica&quot;" font-size="21px" font-weight="bold">Visualize</text></switch></g></g><g><rect x="601" y="152.5" width="95" height="37" fill="none" stroke="none" pointer-events="all"/></g><g><g transform="translate(-0.5 -0.5)"><switch><foreignObject style="overflow: visible; text-align: left;" pointer-events="none" width="100%" height="100%" requiredFeatures="http://www.w3.org/TR/SVG11/feature#Extensibility"><div xmlns="http://www.w3.org/1999/xhtml" style="display: flex; align-items: unsafe center; justify-content: unsafe flex-start; width: 1px; height: 1px; padding-top: 171px; margin-left: 603px;"><div style="box-sizing: border-box; font-size: 0; text-align: left; color: #000000; "><div style="display: inline-block; font-size: 21px; font-family: &quot;Helvetica&quot;; color: light-dark(#000000, #ededed); line-height: 1.2; pointer-events: all; font-weight: bold; white-space: nowrap; ">Transfer</div></div></div></foreignObject><text x="603" y="177" fill="#000000" font-family="&quot;Helvetica&quot;" font-size="21px" font-weight="bold">Transfer</text></switch></g></g><g><rect x="601" y="222.5" width="111" height="37" fill="none" stroke="none" pointer-events="all"/></g><g><g transform="translate(-0.5 -0.5)"><switch><foreignObject style="overflow: visible; text-align: left;" pointer-events="none" width="100%" height="100%" requiredFeatures="http://www.w3.org/TR/SVG11/feature#Extensibility"><div xmlns="http://www.w3.org/1999/xhtml" style="display: flex; align-items: unsafe center; justify-content: unsafe flex-start; width: 1px; height: 1px; padding-top: 241px; margin-left: 603px;"><div style="box-sizing: border-box; font-size: 0; text-align: left; color: #000000; "><div style="display: inline-block; font-size: 21px; font-family: &quot;Helvetica&quot;; color: light-dark(#000000, #ededed); line-height: 1.2; pointer-events: all; font-weight: bold; white-space: nowrap; ">Download</div></div></div></foreignObject><text x="603" y="247" fill="#000000" font-family="&quot;Helvetica&quot;" font-size="21px" font-weight="bold">Download</text></switch></g></g><g/><g><ellipse cx="571" cy="241" rx="20" ry="20" fill="none" stroke="#000000" stroke-width="2" pointer-events="all" style="stroke: light-dark(rgb(0, 0, 0), rgb(255, 255, 255));"/></g><g><rect x="562" y="229.33" width="20" height="23.33" fill="none" stroke="none" pointer-events="all"/><path d="M 574.5 239.73 L 566.06 239.73 L 566.06 238.79 L 574.5 238.79 Z M 574.5 242.26 L 566.06 242.26 L 566.06 241.31 L 574.5 241.31 Z M 574.23 244.78 L 566.06 244.78 L 566.06 243.83 L 574.23 243.83 Z M 576.32 249.19 L 562 249.19 L 562 229.33 L 573.56 229.33 L 578.56 234.37 L 578.56 240.05 L 577.63 240.05 L 577.63 235.32 L 572.94 235.32 L 572.94 230.28 L 562.94 230.28 L 562.94 248.25 L 575.37 248.25 Z M 578.57 250.14 L 575.14 246.67 L 575.14 244.78 L 577.63 247.3 L 577.63 240.99 L 579.5 240.99 L 579.5 247.28 L 582 244.78 L 582 246.67 Z M 581.69 252.66 L 575.44 252.66 L 575.44 251.08 L 581.69 251.08 Z" fill="#000000" stroke="none" pointer-events="all" style="fill: light-dark(rgb(0, 0, 0), rgb(237, 237, 237));"/></g><g/><g><ellipse cx="571" cy="171" rx="20" ry="20" fill="none" stroke="#000000" stroke-width="2" pointer-events="all" style="stroke: light-dark(rgb(0, 0, 0), rgb(255, 255, 255));"/></g><g><path d="M 570.53 166.46 C 570.82 166.41 571.02 166.12 571.01 165.83 C 571.02 165.11 571.3 164.6 571.8 164.44 C 572.23 164.29 572.71 164.45 572.99 164.83 C 573.11 165.01 573.33 165.1 573.55 165.06 C 573.76 165.03 573.94 164.88 574.01 164.68 C 574.24 164.05 574.55 163.53 574.96 163.12 C 575.45 162.62 576.8 161.55 578.71 162.37 C 579.8 162.82 580.67 164.2 580.68 165.4 L 580.65 165.89 C 580.63 166.17 580.81 166.43 581.09 166.5 C 581.71 166.66 582.77 167.15 582.77 168.67 C 582.79 169.52 582.36 170.33 581.63 170.78 C 581.5 170.86 581.33 170.9 581.1 170.9 L 576.29 170.9 L 576.29 172.07 L 581.1 172.07 C 581.55 172.07 581.94 171.97 582.25 171.77 C 583.33 171.11 583.97 169.93 583.94 168.67 C 583.94 167.17 583.17 166.02 581.85 165.51 L 581.85 165.44 C 581.85 163.72 580.7 161.93 579.17 161.28 C 577.39 160.52 575.5 160.9 574.12 162.29 C 573.78 162.64 573.48 163.05 573.24 163.51 C 572.7 163.2 572.04 163.12 571.43 163.32 C 570.55 163.61 569.99 164.37 569.86 165.4 C 569.18 165.59 568.62 165.9 568.22 166.34 L 569.08 167.14 C 569.47 166.71 570.09 166.53 570.53 166.46 Z M 560.57 168.37 L 561.4 167.54 L 560.07 166.19 L 567.47 166.19 L 567.47 165.01 L 560.06 165.01 L 561.41 163.67 L 560.58 162.83 L 558.23 165.17 C 558 165.4 558 165.77 558.23 166 Z M 581.43 174.6 L 580.59 175.43 L 581.93 176.78 L 574.53 176.78 L 574.53 177.96 L 581.94 177.96 L 580.59 179.3 L 581.42 180.14 L 583.77 177.8 C 584 177.57 584 177.2 583.77 176.97 Z M 576.95 178.88 L 577.99 179.44 C 576.98 181.3 574.76 181.48 574.67 181.48 L 561.44 181.49 C 560.91 181.48 560.46 181.37 560.09 181.14 C 559.33 180.66 558.06 179.54 558.06 177.42 C 558.06 175.6 559.02 174.2 560.67 173.61 L 560.66 173.46 C 560.66 171.35 562.05 169.2 563.9 168.42 C 566.06 167.51 568.34 167.96 570.01 169.63 C 570.47 170.09 570.85 170.63 571.15 171.25 C 571.82 170.81 572.65 170.68 573.42 170.94 C 574.48 171.29 575.15 172.23 575.28 173.49 C 576.06 173.7 577.25 174.2 577.94 175.38 L 576.92 175.98 C 576.31 174.94 575.1 174.63 574.6 174.55 C 574.29 174.49 574.07 174.2 574.12 173.88 C 574.12 172.97 573.73 172.28 573.05 172.06 C 572.46 171.86 571.8 172.08 571.41 172.6 C 571.28 172.77 571.07 172.86 570.85 172.83 C 570.64 172.8 570.46 172.65 570.38 172.44 C 570.1 171.65 569.7 170.98 569.18 170.47 C 568.55 169.83 566.81 168.47 564.35 169.5 C 562.94 170.1 561.83 171.82 561.83 173.43 L 561.87 174 C 561.88 174.28 561.7 174.53 561.42 174.6 C 560.61 174.81 559.23 175.45 559.23 177.42 C 559.23 178.9 560.04 179.72 560.71 180.14 C 560.9 180.25 561.13 180.31 561.44 180.31 L 574.62 180.31 C 574.6 180.31 576.26 180.16 576.95 178.88 Z" fill="#000000" stroke="none" pointer-events="all" style="fill: light-dark(rgb(0, 0, 0), rgb(237, 237, 237));"/></g><g/><g><ellipse cx="571" cy="31" rx="20" ry="20" fill="none" stroke="#000000" stroke-width="2" pointer-events="all" style="stroke: light-dark(rgb(0, 0, 0), rgb(255, 255, 255));"/></g><g><ellipse cx="569" cy="29" rx="8" ry="8" fill="none" stroke="#000000" stroke-width="2" pointer-events="all" style="stroke: light-dark(rgb(0, 0, 0), rgb(255, 255, 255));"/><path d="M 574.6 34.6 L 581 41" fill="none" stroke="#000000" stroke-width="2" stroke-miterlimit="10" pointer-events="all" style="stroke: light-dark(rgb(0, 0, 0), rgb(255, 255, 255));"/></g><g><path d="M 181 136 L 211 136" fill="none" stroke="#00c753" stroke-width="2" stroke-miterlimit="10" pointer-events="stroke" style="stroke: light-dark(rgb(0, 199, 83), rgb(0, 153, 53));"/></g><g><rect x="1" y="106" width="180" height="60" rx="9" ry="9" fill="none" stroke="#000000" stroke-width="2" pointer-events="all" style="stroke: light-dark(rgb(0, 0, 0), rgb(255, 255, 255));"/></g><g><path d="M 181 206 L 211 206" fill="none" stroke="#00c753" stroke-width="2" stroke-miterlimit="10" pointer-events="stroke" style="stroke: light-dark(rgb(0, 199, 83), rgb(0, 153, 53));"/></g><g><rect x="1" y="176" width="180" height="60" rx="9" ry="9" fill="none" stroke="#000000" stroke-width="2" pointer-events="all" style="stroke: light-dark(rgb(0, 0, 0), rgb(255, 255, 255));"/></g><g><rect x="1" y="36" width="180" height="60" rx="9" ry="9" fill="none" stroke="#000000" stroke-width="2" pointer-events="all" style="stroke: light-dark(rgb(0, 0, 0), rgb(255, 255, 255));"/></g><g><path d="M 181 66 L 211 66" fill="none" stroke="#00c753" stroke-width="2" stroke-miterlimit="10" pointer-events="stroke" style="stroke: light-dark(rgb(0, 199, 83), rgb(0, 153, 53));"/></g><g><rect x="57.5" y="47.5" width="97" height="37" fill="none" stroke="none" pointer-events="all"/></g><g><g transform="translate(-0.5 -0.5)"><switch><foreignObject style="overflow: visible; text-align: left;" pointer-events="none" width="100%" height="100%" requiredFeatures="http://www.w3.org/TR/SVG11/feature#Extensibility"><div xmlns="http://www.w3.org/1999/xhtml" style="display: flex; align-items: unsafe center; justify-content: unsafe flex-start; width: 1px; height: 1px; padding-top: 66px; margin-left: 60px;"><div style="box-sizing: border-box; font-size: 0; text-align: left; color: #000000; "><div style="display: inline-block; font-size: 21px; font-family: &quot;Helvetica&quot;; color: light-dark(#000000, #ededed); line-height: 1.2; pointer-events: all; font-weight: bold; white-space: nowrap; ">Maintain</div></div></div></foreignObject><text x="60" y="72" fill="#000000" font-family="&quot;Helvetica&quot;" font-size="21px" font-weight="bold">Maintain</text></switch></g></g><g/><g><path d="M 34.75 59.92 L 38.08 63.25 L 25.58 75.75 L 21 77 L 22.25 72.42 Z" fill="#000000" stroke="none" pointer-events="all" style="fill: light-dark(rgb(0, 0, 0), rgb(237, 237, 237));"/><path d="M 35.17 59.5 L 37.67 57 L 41 60.33 L 38.5 62.83 Z" fill="#000000" stroke="none" pointer-events="all" style="fill: light-dark(rgb(0, 0, 0), rgb(237, 237, 237));"/></g><g><ellipse cx="31" cy="66" rx="20" ry="20" fill="none" stroke="#000000" stroke-width="2" pointer-events="all" style="stroke: light-dark(rgb(0, 0, 0), rgb(255, 255, 255));"/></g><g><ellipse cx="31" cy="136" rx="20" ry="20" fill="none" stroke="#000000" stroke-width="2" pointer-events="all" style="stroke: light-dark(rgb(0, 0, 0), rgb(237, 237, 237));"/><path d="M 31 116 L 31 156 M 51 136 L 11 136 M 31 116 C 37.7 120.45 41.73 127.96 41.73 136 C 41.73 144.04 37.7 151.55 31 156 C 24.3 151.55 20.27 144.04 20.27 136 C 20.27 127.96 24.3 120.45 31 116 Z M 17 150 C 25.37 143.99 36.63 143.99 45 150 M 17 122 C 25.37 128.01 36.63 128.01 45 122" fill="none" stroke="#000000" stroke-width="2" stroke-miterlimit="10" pointer-events="all" style="stroke: light-dark(rgb(0, 0, 0), rgb(237, 237, 237));"/></g><g><rect x="61" y="117.5" width="90" height="37" fill="none" stroke="none" pointer-events="all"/></g><g><g transform="translate(-0.5 -0.5)"><switch><foreignObject style="overflow: visible; text-align: left;" pointer-events="none" width="100%" height="100%" requiredFeatures="http://www.w3.org/TR/SVG11/feature#Extensibility"><div xmlns="http://www.w3.org/1999/xhtml" style="display: flex; align-items: unsafe center; justify-content: unsafe flex-start; width: 1px; height: 1px; padding-top: 136px; margin-left: 63px;"><div style="box-sizing: border-box; font-size: 0; text-align: left; color: #000000; "><div style="display: inline-block; font-size: 21px; font-family: &quot;Helvetica&quot;; color: light-dark(#000000, #ededed); line-height: 1.2; pointer-events: all; font-weight: bold; white-space: nowrap; ">Harvest</div></div></div></foreignObject><text x="63" y="142" fill="#000000" font-family="&quot;Helvetica&quot;" font-size="21px" font-weight="bold">Harvest</text></switch></g></g><g><path d="M 241 72.74 L 301.73 100.05" fill="none" stroke="#00c753" stroke-width="2" stroke-miterlimit="10" pointer-events="stroke" style="stroke: light-dark(rgb(0, 199, 83), rgb(0, 153, 53));"/></g><g><rect x="211" y="46" width="30" height="40" fill="none" stroke="none" pointer-events="all"/><path d="M 218.36 66.95 L 218.36 65.04 L 233.64 65.04 L 233.64 66.95 Z M 218.36 72.03 L 218.36 70.12 L 233.64 70.12 L 233.64 72.03 Z M 218.36 77.11 L 218.36 75.2 L 233.64 75.2 L 233.64 77.11 Z M 212.7 84.1 L 239.3 84.1 L 239.3 58.07 L 230.81 58.07 L 230.81 47.91 L 212.7 47.91 Z M 211 86 L 211 46 L 231.94 46 L 241 56.16 L 241 86 Z" fill="#000000" stroke="none" pointer-events="all" style="fill: light-dark(rgb(0, 0, 0), rgb(237, 237, 237));"/></g><g/><g><ellipse cx="31" cy="206" rx="20" ry="20" fill="none" stroke="#000000" stroke-width="2" pointer-events="all" style="stroke: light-dark(rgb(0, 0, 0), rgb(255, 255, 255));"/></g><g><rect x="17" y="189" width="28" height="28" fill="none" stroke="none" pointer-events="all"/><path d="M 29.73 192.82 L 29.73 190.27 L 32.27 190.27 L 32.27 192.82 Z M 29.09 194.09 L 32.91 194.09 C 33.08 194.09 33.24 194.02 33.36 193.9 C 33.48 193.79 33.55 193.62 33.55 193.45 L 33.55 189.64 C 33.55 189.47 33.48 189.31 33.36 189.19 C 33.24 189.07 33.08 189 32.91 189 L 29.09 189 C 28.74 189 28.45 189.28 28.45 189.64 L 28.45 193.45 C 28.45 193.81 28.74 194.09 29.09 194.09 Z M 24.64 203.64 L 24.64 201.09 L 27.18 201.09 L 27.18 203.64 Z M 34.82 203.64 L 34.82 201.09 L 37.36 201.09 L 37.36 203.64 Z M 20.18 208.09 L 30.36 208.09 L 30.36 210.64 L 31.64 210.64 L 31.64 208.09 L 41.82 208.09 L 41.82 210.64 L 43.09 210.64 L 43.09 207.45 C 43.09 207.29 43.02 207.12 42.9 207 C 42.79 206.89 42.62 206.82 42.45 206.82 L 36.73 206.82 L 36.73 204.91 L 38 204.91 C 38.17 204.91 38.33 204.84 38.45 204.72 C 38.57 204.6 38.64 204.44 38.64 204.27 L 38.64 200.45 C 38.64 200.1 38.35 199.82 38 199.82 L 34.18 199.82 C 33.83 199.82 33.55 200.1 33.55 200.45 L 33.55 204.27 C 33.55 204.44 33.61 204.6 33.73 204.72 C 33.85 204.84 34.01 204.91 34.18 204.91 L 35.45 204.91 L 35.45 206.82 L 26.55 206.82 L 26.55 204.91 L 27.82 204.91 C 27.99 204.91 28.15 204.84 28.27 204.72 C 28.39 204.6 28.45 204.44 28.45 204.27 L 28.45 200.45 C 28.45 200.29 28.39 200.12 28.27 200 C 28.15 199.89 27.99 199.82 27.82 199.82 L 24 199.82 C 23.65 199.82 23.36 200.1 23.36 200.45 L 23.36 204.27 C 23.36 204.44 23.43 204.6 23.55 204.72 C 23.67 204.84 23.83 204.91 24 204.91 L 25.27 204.91 L 25.27 206.82 L 19.55 206.82 C 19.19 206.82 18.91 207.1 18.91 207.45 L 18.91 210.64 L 20.18 210.64 Z M 26.55 198.55 L 25.27 198.55 L 25.27 196.64 C 25.27 196.28 25.56 196 25.91 196 L 30.36 196 L 30.36 194.73 L 31.64 194.73 L 31.64 196 L 36.09 196 C 36.44 196 36.73 196.28 36.73 196.64 L 36.73 198.55 L 35.45 198.55 L 35.45 197.27 L 26.55 197.27 Z M 41.18 215.73 L 41.18 213.18 L 43.73 213.18 L 43.73 215.73 Z M 44.36 211.91 L 40.55 211.91 C 40.38 211.91 40.21 211.98 40.1 212.1 C 39.98 212.21 39.91 212.38 39.91 212.55 L 39.91 216.36 C 39.91 216.53 39.98 216.69 40.1 216.81 C 40.21 216.93 40.38 217 40.55 217 L 44.36 217 C 44.72 217 45 216.72 45 216.36 L 45 212.55 C 45 212.19 44.72 211.91 44.36 211.91 Z M 29.73 215.73 L 29.73 213.18 L 32.27 213.18 L 32.27 215.73 Z M 32.91 211.91 L 29.09 211.91 C 28.74 211.91 28.45 212.19 28.45 212.55 L 28.45 216.36 C 28.45 216.72 28.74 217 29.09 217 L 32.91 217 C 33.08 217 33.24 216.93 33.36 216.81 C 33.48 216.69 33.55 216.53 33.55 216.36 L 33.55 212.55 C 33.55 212.38 33.48 212.21 33.36 212.1 C 33.24 211.98 33.08 211.91 32.91 211.91 Z M 18.27 215.73 L 18.27 213.18 L 20.82 213.18 L 20.82 215.73 Z M 21.45 211.91 L 17.64 211.91 C 17.28 211.91 17 212.19 17 212.55 L 17 216.36 C 17 216.72 17.28 217 17.64 217 L 21.45 217 C 21.81 217 22.09 216.72 22.09 216.36 L 22.09 212.55 C 22.09 212.19 21.81 211.91 21.45 211.91 Z" fill="#000000" stroke="none" pointer-events="all" style="fill: light-dark(rgb(0, 0, 0), rgb(237, 237, 237));"/></g><g><rect x="61" y="187.5" width="69" height="37" fill="none" stroke="none" pointer-events="all"/></g><g><g transform="translate(-0.5 -0.5)"><switch><foreignObject style="overflow: visible; text-align: left;" pointer-events="none" width="100%" height="100%" requiredFeatures="http://www.w3.org/TR/SVG11/feature#Extensibility"><div xmlns="http://www.w3.org/1999/xhtml" style="display: flex; align-items: unsafe center; justify-content: unsafe flex-start; width: 1px; height: 1px; padding-top: 206px; margin-left: 63px;"><div style="box-sizing: border-box; font-size: 0; text-align: left; color: #000000; "><div style="display: inline-block; font-size: 21px; font-family: &quot;Helvetica&quot;; color: light-dark(#000000, #ededed); line-height: 1.2; pointer-events: all; font-weight: bold; white-space: nowrap; ">Index</div></div></div></foreignObject><text x="63" y="212" fill="#000000" font-family="&quot;Helvetica&quot;" font-size="21px" font-weight="bold">Index</text></switch></g></g><g><rect x="211" y="116" width="30" height="40" fill="none" stroke="none" pointer-events="all"/><path d="M 218.36 136.95 L 218.36 135.04 L 233.64 135.04 L 233.64 136.95 Z M 218.36 142.03 L 218.36 140.12 L 233.64 140.12 L 233.64 142.03 Z M 218.36 147.11 L 218.36 145.2 L 233.64 145.2 L 233.64 147.11 Z M 212.7 154.1 L 239.3 154.1 L 239.3 128.07 L 230.81 128.07 L 230.81 117.91 L 212.7 117.91 Z M 211 156 L 211 116 L 231.94 116 L 241 126.16 L 241 156 Z" fill="#000000" stroke="none" pointer-events="all" style="fill: light-dark(rgb(0, 0, 0), rgb(237, 237, 237));"/></g><g><path d="M 241 199.26 L 301.73 171.95" fill="none" stroke="#00c753" stroke-width="2" stroke-miterlimit="10" pointer-events="stroke" style="stroke: light-dark(rgb(0, 199, 83), rgb(0, 153, 53));"/></g><g><rect x="211" y="186" width="30" height="40" fill="none" stroke="none" pointer-events="all"/><path d="M 218.36 206.95 L 218.36 205.04 L 233.64 205.04 L 233.64 206.95 Z M 218.36 212.03 L 218.36 210.12 L 233.64 210.12 L 233.64 212.03 Z M 218.36 217.11 L 218.36 215.2 L 233.64 215.2 L 233.64 217.11 Z M 212.7 224.1 L 239.3 224.1 L 239.3 198.07 L 230.81 198.07 L 230.81 187.91 L 212.7 187.91 Z M 211 226 L 211 186 L 231.94 186 L 241 196.16 L 241 226 Z" fill="#000000" stroke="none" pointer-events="all" style="fill: light-dark(rgb(0, 0, 0), rgb(237, 237, 237));"/></g><g><path d="M 241 136 L 294 136" fill="none" stroke="#00c753" stroke-width="2" stroke-miterlimit="10" pointer-events="stroke" style="stroke: light-dark(rgb(0, 199, 83), rgb(0, 153, 53));"/></g><g><path d="M 541 31 L 454.56 87.85" fill="none" stroke="#00c753" stroke-width="2" stroke-miterlimit="10" pointer-events="stroke" style="stroke: light-dark(rgb(0, 199, 83), rgb(0, 153, 53));"/></g><g><path d="M 541 171 L 466.96 154.77" fill="none" stroke="#00c753" stroke-width="2" stroke-miterlimit="10" pointer-events="stroke" style="stroke: light-dark(rgb(0, 199, 83), rgb(0, 153, 53));"/></g><g><ellipse cx="381.5" cy="136" rx="87.5" ry="87.5" fill="#d5e8d4" stroke="#00c753" stroke-width="2" pointer-events="all" style="fill: light-dark(rgb(213, 232, 212), rgb(31, 47, 30)); stroke: light-dark(rgb(0, 199, 83), rgb(0, 153, 53));"/></g><g><g transform="translate(-0.5 -0.5)"><switch><foreignObject style="overflow: visible; text-align: left;" pointer-events="none" width="100%" height="100%" requiredFeatures="http://www.w3.org/TR/SVG11/feature#Extensibility"><div xmlns="http://www.w3.org/1999/xhtml" style="display: flex; align-items: unsafe center; justify-content: unsafe center; width: 173px; height: 1px; padding-top: 136px; margin-left: 295px;"><div style="box-sizing: border-box; font-size: 0; text-align: center; color: #000000; "><div style="display: inline-block; font-size: 28px; font-family: &quot;Helvetica&quot;; color: light-dark(#000000, #ffffff); line-height: 1.2; pointer-events: all; font-weight: bold; white-space: normal; word-wrap: normal; "><font style="font-size: 28px;">InGrid</font><div><span style="background-color: initial;">System</span></div></div></div></div></foreignObject><text x="382" y="144" fill="light-dark(#000000, #ffffff)" font-family="&quot;Helvetica&quot;" font-size="28px" text-anchor="middle" font-weight="bold">InGrid...</text></switch></g></g><g><path d="M 541 101 L 466.96 117.23" fill="none" stroke="#00c753" stroke-width="2" stroke-miterlimit="10" pointer-events="stroke" style="stroke: light-dark(rgb(0, 199, 83), rgb(0, 153, 53));"/></g><g><path d="M 541 241 L 454.56 184.15" fill="none" stroke="#00c753" stroke-width="2" stroke-miterlimit="10" pointer-events="stroke" style="stroke: light-dark(rgb(0, 199, 83), rgb(0, 153, 53));"/></g></g><switch><g requiredFeatures="http://www.w3.org/TR/SVG11/feature#Extensibility"/><a transform="translate(0,-5)" xlink:href="https://www.drawio.com/doc/faq/svg-export-text-problems" target="_blank"><text text-anchor="middle" font-size="10px" x="50%" y="100%">Text is not SVG - cannot display</text></a></switch></svg>